<?xml version="1.0" standalone="no"?><!DOCTYPE svg PUBLIC "-//W3C//DTD SVG 1.1//EN" "http://www.w3.org/Graphics/SVG/1.1/DTD/svg11.dtd"><svg t="1539941343754" class="icon" style="" viewBox="0 0 1024 1024" version="1.1" xmlns="http://www.w3.org/2000/svg" p-id="3479" xmlns:xlink="http://www.w3.org/1999/xlink" width="100" height="100"><defs><style type="text/css"></style></defs><path d="M388.222929 580.160379c0 51.78748-15.22168 93.818759-33.995255 93.818759-18.800181 0-33.995255-42.030255-33.995255-93.818759 0-51.817156 15.195074-93.818759 33.995255-93.818759C373.001249 486.34162 388.222929 528.343223 388.222929 580.160379z" p-id="3480" fill="#8a8a8a"></path><path d="M707.200774 580.160379c0 51.78748-15.245216 93.818759-33.995255 93.818759-18.800181 0-34.045397-42.030255-34.045397-93.818759 0-51.817156 15.245216-93.818759 34.045397-93.818759C691.955558 486.34162 707.200774 528.343223 707.200774 580.160379z" p-id="3481" fill="#8a8a8a"></path><path d="M512.50756 125.177977c-213.701127 0-386.968355 173.217087-386.968355 386.968355 0 213.69908 173.267229 386.966309 386.968355 386.966309 213.725686 0 386.991891-173.267229 386.991891-386.966309C899.500475 298.394041 726.233246 125.177977 512.50756 125.177977zM512.50756 854.56096c-189.104939 0-342.414627-153.308665-342.414627-342.414627 0-8.601912 0.670266-17.074887 1.287319-25.495674C224.328162 314.180586 352.735693 320.543504 352.735693 320.543504c86.814228 73.728188 149.57155 65.487503 160.28659 63.378469 10.661827 2.110057 73.448826 10.350742 160.236448-63.378469 0 0 126.550231-6.260587 180.195012 162.217568 0.849344 9.735735 1.493004 19.443841 1.493004 29.385261C854.945723 701.251272 701.637058 854.56096 512.50756 854.56096z" p-id="3482" fill="#8a8a8a"></path></svg>