<?xml version="1.0" standalone="no"?><!DOCTYPE svg PUBLIC "-//W3C//DTD SVG 1.1//EN" "http://www.w3.org/Graphics/SVG/1.1/DTD/svg11.dtd"><svg t="1539744618309" class="icon" style="" viewBox="0 0 1024 1024" version="1.1" xmlns="http://www.w3.org/2000/svg" p-id="3877" xmlns:xlink="http://www.w3.org/1999/xlink" width="18" height="18"><defs><style type="text/css"></style></defs><path d="M911.40249 607.60166c-21.244813-4.248963-46.738589 8.497925-50.987552 29.742738-42.489627 174.207469-195.452282 293.178423-373.908714 293.178424-212.448133 0-386.655602-174.207469-386.655602-386.655602s174.207469-386.655602 386.655602-386.655602c97.726141 0 195.452282 38.240664 263.435685 106.224067h-178.456432c-21.244813 0-42.489627 16.995851-42.489626 42.489626 0 21.244813 16.995851 42.489627 42.489626 42.489627h263.435685c21.244813 0 42.489627-16.995851 42.489626-42.489627v-263.435684c0-21.244813-16.995851-42.489627-42.489626-42.489627-21.244813 0-42.489627 16.995851-42.489627 42.489627v148.713693c-84.979253-76.481328-195.452282-118.970954-310.174274-118.970955-259.186722 0-471.634855 212.448133-471.634854 471.634855s212.448133 471.634855 471.634854 471.634855c216.697095 0 403.651452-148.713693 458.887967-356.912863 4.248963-21.244813-8.497925-42.489627-29.742738-50.987552z" p-id="3878" fill="#707070"></path></svg>